<svg xmlns="http://www.w3.org/2000/svg" width="28" height="28" viewBox="0 0 28 28">
    <g fill="none" fill-rule="evenodd">
        <path d="M0 0h27.717v27.717H0z"/>
        <path fill="#F8D025" fill-rule="nonzero" d="M13.859 1.386c6.889 0 12.473 5.584 12.473 12.473 0 6.889-5.584 12.473-12.473 12.473-6.89 0-12.473-5.584-12.473-12.473 0-6.89 5.584-12.473 12.473-12.473zm4.645 7.483a1.227 1.227 0 0 0-1.64.089l-3.16 3.158-3.158-3.158a1.238 1.238 0 0 0-1.641-.089l-.1.09-.09.1a1.227 1.227 0 0 0-.001 1.54l.09.1 3.158 3.159-3.158 3.16a1.238 1.238 0 0 0-.089 1.64l.09.1.1.09c.487.392 1.192.36 1.64-.088l3.159-3.16 3.16 3.16a1.238 1.238 0 0 0 1.64.088l.1-.09.09-.1a1.227 1.227 0 0 0 .002-1.54l-.09-.1-3.16-3.16 3.16-3.158a1.238 1.238 0 0 0 .088-1.641l-.09-.1z"/>
    </g>
</svg>
